<?xml version="1.0" encoding="UTF-8" standalone="no"?>
<svg width="226px" height="26px" viewBox="0 0 226 26" version="1.1" xmlns="http://www.w3.org/2000/svg" xmlns:xlink="http://www.w3.org/1999/xlink">
    <!-- Generator: Sketch 40.3 (33839) - http://www.bohemiancoding.com/sketch -->
    <title>DF_Horizontal_PMS</title>
    <desc>Created with Sketch.</desc>
    <defs>
        <polygon id="path-1" points="122.3231 25.9711111 0.0287898089 25.9711111 0.0287898089 0.102074074 61.1759448 0.102074074 122.3231 0.102074074"></polygon>
    </defs>
    <g id="Page-1" stroke="none" stroke-width="1" fill="none" fill-rule="evenodd">
        <g id="0.-Sticky-Navigation" transform="translate(-607.000000, -21.000000)">
            <g id="Navigation" transform="translate(-1.000000, 0.000000)">
                <g id="Group-2">
                    <g id="Group">
                        <g id="DF_Horizontal_PMS" transform="translate(608.000000, 21.000000)">
                            <polygon id="Fill-1" fill="#009DCD" points="104.697979 5.83892593 107.616306 5.83892593 107.616306 2.91055556 104.697979 2.91055556"></polygon>
                            <polygon id="Fill-2" fill="#9E2459" points="104.697979 23.4096296 107.616306 23.4096296 107.616306 20.4812593 104.697979 20.4812593"></polygon>
                            <polygon id="Fill-3" fill="#EAA22D" points="101.779652 8.7672963 104.697979 8.7672963 104.697979 5.83892593 101.779652 5.83892593"></polygon>
                            <polygon id="Fill-4" fill="#009DCD" points="101.779652 20.4812593 104.697979 20.4812593 104.697979 17.5528889 101.779652 17.5528889"></polygon>
                            <polygon id="Fill-5" fill="#9E2459" points="95.9439575 8.7672963 98.8622845 8.7672963 98.8622845 5.83892593 95.9439575 5.83892593"></polygon>
                            <polygon id="Fill-6" fill="#009DCD" points="95.9439575 14.6245185 98.8622845 14.6245185 98.8622845 11.6961481 95.9439575 11.6961481"></polygon>
                            <polygon id="Fill-7" fill="#75468A" points="90.1082633 14.6245185 93.0265902 14.6245185 93.0265902 11.6961481 90.1082633 11.6961481"></polygon>
                            <polygon id="Fill-8" fill="#CF292A" points="98.8622845 5.83892593 101.780611 5.83892593 101.780611 2.91055556 98.8622845 2.91055556"></polygon>
                            <polygon id="Fill-9" fill="#75468A" points="98.8622845 11.6961481 101.780611 11.6961481 101.780611 8.76777778 98.8622845 8.76777778"></polygon>
                            <polygon id="Fill-10" fill="#EAA22D" points="98.8622845 17.5528889 101.780611 17.5528889 101.780611 14.6245185 98.8622845 14.6245185"></polygon>
                            <polygon id="Fill-11" fill="#9E2459" points="93.0256306 17.5528889 95.9439575 17.5528889 95.9439575 14.6245185 93.0256306 14.6245185"></polygon>
                            <g id="Group-16">
                                <mask id="mask-2" fill="white">
                                    <use xlink:href="#path-1"></use>
                                </mask>
                                <g id="Clip-13"></g>
                                <polygon id="Fill-12" fill="#CF292A" mask="url(#mask-2)" points="98.8622845 23.4096296 101.780611 23.4096296 101.780611 20.4812593 98.8622845 20.4812593"></polygon>
                                <path d="M122.116293,10.8285185 C122.088463,10.6754074 122.026565,10.608963 121.858624,10.6123333 C121.320735,10.6229259 120.364433,10.6060741 119.826544,10.6205185 C119.601023,10.6267778 119.49882,10.5468519 119.4422,10.3282593 C119.21572,9.45148148 118.861605,8.62574074 118.414403,7.83851852 C118.052132,7.20007407 118.035817,7.41818519 118.546357,6.89048148 C118.882718,6.54285185 119.185011,6.16248148 119.52569,5.77007407 C118.559312,4.44696296 117.314633,3.26203704 115.845393,2.29666667 C115.397711,2.72518519 114.960106,3.13540741 114.533537,3.55718519 C114.402544,3.6867037 114.295062,3.71077778 114.13096,3.61737037 C113.190972,3.08148148 112.191966,2.69148148 111.141138,2.43966667 C110.953045,2.39440741 110.898824,2.30388889 110.902662,2.11851852 C110.913699,1.60188889 110.897864,1.0842963 110.911299,0.568148148 C110.915618,0.384703704 110.844123,0.331740741 110.680981,0.304777778 C109.868149,0.169962963 108.429138,0.102074074 107.616306,0.102074074 L107.616306,5.83892593 C107.675325,5.83796296 107.734824,5.83940741 107.794803,5.83940741 C111.641601,5.83940741 115.177949,8.96903704 115.177949,12.8295556 C115.177949,12.9037037 115.17459,12.9773704 115.172671,13.051037 C115.17459,13.1247037 115.177949,13.1983704 115.177949,13.2725185 C115.177949,17.133037 111.622887,20.4855926 107.775609,20.4855926 C107.722348,20.4855926 107.669567,20.4831852 107.616306,20.4817407 L107.616306,26 C108.429138,25.9995185 109.868149,25.9321111 110.680981,25.7972963 C110.844123,25.7703333 110.915618,25.7173704 110.911299,25.5339259 C110.897864,25.0172963 110.913699,24.5001852 110.902662,23.9835556 C110.898824,23.7977037 110.953045,23.7076667 111.141138,23.6624074 C112.191966,23.4105926 113.190972,23.0201111 114.13096,22.4847037 C114.295062,22.3912963 114.402544,22.4153704 114.533537,22.5448889 C114.960106,22.9666667 115.397711,23.3768889 115.845393,23.8054074 C117.315113,22.840037 118.559312,21.6551111 119.52569,20.332 C119.185011,19.9395926 118.882718,19.5592222 118.546357,19.2115926 C118.035817,18.6838889 118.052132,18.9015185 118.414403,18.2635556 C118.861605,17.4763333 119.21572,16.6505926 119.4422,15.7733333 C119.49882,15.5552222 119.601023,15.4752963 119.826544,15.4810741 C120.364433,15.4955185 121.320735,15.4786667 121.858624,15.4892593 C122.026565,15.4931111 122.088463,15.4266667 122.116293,15.2735556 C122.250166,14.5325556 122.318301,13.7915556 122.3231,13.051037 C122.318301,12.310037 122.250166,11.569037 122.116293,10.8285185" id="Fill-14" fill="#CF292A" mask="url(#mask-2)"></path>
                                <path d="M7.69551592,13.051037 C7.69551592,11.0721481 6.34383439,9.68451852 4.34006369,9.68451852 L2.44809342,9.68451852 L2.44809342,16.4170741 L4.34006369,16.4170741 C6.34383439,16.4170741 7.69551592,15.0607407 7.69551592,13.0828148 L7.69551592,13.051037 L7.69551592,13.051037 Z M4.34006369,18.6347778 L0,18.6347778 L0,7.4672963 L4.34006369,7.4672963 C7.83802548,7.4672963 10.2544501,9.87614815 10.2544501,13.0187778 L10.2544501,13.051037 C10.2544501,16.1936667 7.83802548,18.6347778 4.34006369,18.6347778 L4.34006369,18.6347778 Z" id="Fill-15" fill="#1A1918" mask="url(#mask-2)"></path>
                            </g>
                            <polygon id="Fill-17" fill="#1A1918" points="15.7230743 18.6347778 18.1716476 18.6347778 18.1716476 7.4672963 15.7230743 7.4672963"></polygon>
                            <path d="M29.4908408,18.8264074 C26.0250276,18.8264074 23.6402718,16.3852963 23.6402718,13.0828148 L23.6402718,13.051037 C23.6402718,9.87614815 26.1046794,7.27566667 29.4750064,7.27566667 C31.4782972,7.27566667 32.6869894,7.8182963 33.8476985,8.80677778 L32.3050446,10.673963 C31.4471083,9.95607407 30.6836985,9.54103704 29.3958344,9.54103704 C27.6151847,9.54103704 26.1996858,11.1207778 26.1996858,13.0187778 L26.1996858,13.051037 C26.1996858,15.093 27.5993503,16.5928148 29.5704926,16.5928148 C30.4610573,16.5928148 31.2556561,16.3694074 31.8765563,15.9225926 L31.8765563,14.3274444 L29.4116688,14.3274444 L29.4116688,12.2050741 L34.2454777,12.2050741 L34.2454777,17.0555185 C33.1001231,18.0290741 31.5258004,18.8264074 29.4908408,18.8264074" id="Fill-18" fill="#1A1918"></path>
                            <polygon id="Fill-19" fill="#1A1918" points="39.8882803 18.6347778 42.3368535 18.6347778 42.3368535 7.4672963 39.8882803 7.4672963"></polygon>
                            <polyline id="Fill-20" fill="#1A1918" points="53.3383992 9.73266667 53.3383992 18.6347778 50.8898259 18.6347778 50.8898259 9.73266667 47.5031847 9.73266667 47.5031847 7.4672963 56.7250403 7.4672963 56.7250403 9.73266667 53.3383992 9.73266667"></polyline>
                            <path d="M65.2607389,10.3388519 L63.7819023,13.9605556 L66.7390955,13.9605556 L65.2607389,10.3388519 L65.2607389,10.3388519 Z M68.6315456,18.6347778 L67.6138259,16.1301111 L62.907172,16.1301111 L61.8899321,18.6347778 L59.3938556,18.6347778 L64.1633673,7.38737037 L66.4209682,7.38737037 L71.1909597,18.6347778 L68.6315456,18.6347778 L68.6315456,18.6347778 Z" id="Fill-21" fill="#1A1918"></path>
                            <polyline id="Fill-22" fill="#1A1918" points="76.0871465 18.6347778 76.0871465 7.4672963 78.5357197 7.4672963 78.5357197 16.4011852 84.0844756 16.4011852 84.0844756 18.6347778 76.0871465 18.6347778"></polyline>
                            <polyline id="Fill-23" fill="#1A1918" points="132.175452 9.70040741 132.175452 12.0774815 137.485732 12.0774815 137.485732 14.3115556 132.175452 14.3115556 132.175452 18.6347778 129.727359 18.6347778 129.727359 7.4672963 138.202119 7.4672963 138.202119 9.70040741 132.175452 9.70040741"></polyline>
                            <path d="M147.935473,10.3388519 L146.457117,13.9605556 L149.41431,13.9605556 L147.935473,10.3388519 L147.935473,10.3388519 Z M151.30628,18.6347778 L150.288561,16.1301111 L145.582386,16.1301111 L144.564667,18.6347778 L142.06859,18.6347778 L146.838102,7.38737037 L149.096183,7.38737037 L153.865694,18.6347778 L151.30628,18.6347778 L151.30628,18.6347778 Z" id="Fill-24" fill="#1A1918"></path>
                            <path d="M163.258369,18.8264074 C159.983049,18.8264074 157.55031,16.2894815 157.55031,13.0828148 L157.55031,13.051037 C157.55031,9.87614815 159.935066,7.27566667 163.353856,7.27566667 C165.452633,7.27566667 166.708348,7.97766667 167.741902,8.99840741 L166.184374,10.8015556 C165.325478,10.0196296 164.450747,9.54103704 163.337541,9.54103704 C161.461885,9.54103704 160.110204,11.1048889 160.110204,13.0187778 L160.110204,13.051037 C160.110204,14.9658889 161.430217,16.561037 163.337541,16.561037 C164.610051,16.561037 165.389295,16.0501852 166.263066,15.2523704 L167.821554,16.8321111 C166.676679,18.0603704 165.40513,18.8264074 163.258369,18.8264074" id="Fill-25" fill="#1A1918"></path>
                            <polyline id="Fill-26" fill="#1A1918" points="177.900866 9.73266667 177.900866 18.6347778 175.452293 18.6347778 175.452293 9.73266667 172.065652 9.73266667 172.065652 7.4672963 181.287507 7.4672963 181.287507 9.73266667 177.900866 9.73266667"></polyline>
                            <path d="M194.514505,13.051037 C194.514505,11.1366667 193.115321,9.54103704 191.143699,9.54103704 C189.172556,9.54103704 187.80504,11.1048889 187.80504,13.0187778 L187.80504,13.051037 C187.80504,14.9658889 189.204225,16.561037 191.175847,16.561037 C193.146989,16.561037 194.514505,14.9971852 194.514505,13.0828148 L194.514505,13.051037 L194.514505,13.051037 Z M191.143699,18.8264074 C187.709554,18.8264074 185.245146,16.2577037 185.245146,13.0828148 L185.245146,13.051037 C185.245146,9.87614815 187.741223,7.27566667 191.175847,7.27566667 C194.609992,7.27566667 197.074399,9.84437037 197.074399,13.0187778 L197.074399,13.051037 C197.074399,16.2259259 194.578323,18.8264074 191.143699,18.8264074 L191.143699,18.8264074 Z" id="Fill-27" fill="#1A1918"></path>
                            <path d="M208.815363,11.2796667 C208.815363,10.2271481 208.084102,9.68451852 206.891244,9.68451852 L204.458985,9.68451852 L204.458985,12.8911852 L206.939707,12.8911852 C208.131605,12.8911852 208.815363,12.2532222 208.815363,11.3114444 L208.815363,11.2796667 L208.815363,11.2796667 Z M208.76786,18.6347778 L206.383104,15.0607407 L204.458985,15.0607407 L204.458985,18.6347778 L202.010412,18.6347778 L202.010412,7.4672963 L207.098051,7.4672963 C209.721282,7.4672963 211.295605,8.85492593 211.295605,11.1525556 L211.295605,11.1838519 C211.295605,12.987 210.325868,14.1194444 208.910849,14.6461852 L211.629567,18.6347778 L208.76786,18.6347778 L208.76786,18.6347778 Z" id="Fill-28" fill="#1A1918"></path>
                            <polyline id="Fill-29" fill="#1A1918" points="221.613393 14.183963 221.613393 18.6347778 219.16482 18.6347778 219.16482 14.2311481 214.887614 7.4672963 217.7498 7.4672963 220.404701 11.9498889 223.107584 7.4672963 225.890599 7.4672963 221.613393 14.183963"></polyline>
                        </g>
                    </g>
                </g>
            </g>
        </g>
    </g>
</svg>